<svg data-v-d3f97b9e="" xmlns="http://www.w3.org/2000/svg" viewBox="0 0 498.3567529744952 194"><!----><!----><!----><g data-v-d3f97b9e="" id="88f1bc0b-de6a-4cd5-a91f-ec4d2e0278b9" fill="white" transform="matrix(5.617977869218204,0,0,5.617977869218204,-4.396065362885764,102.21347941437406)"><path d="M11.27 3.88L11.27 3.88C10.92 2.77 10.22 1.83 9.31 1.16C8.40 0.52 7.31 0.14 6.10 0.14C-0.99 0.14-0.99 10.82 6.10 10.82C7.31 10.82 8.40 10.43 9.31 9.79C10.22 9.13 10.92 8.18 11.27 7.08C11.34 6.83 11.21 6.55 10.96 6.48C10.71 6.41 10.43 6.54 10.36 6.79C10.07 7.70 9.51 8.47 8.74 9.02C8.01 9.55 7.10 9.86 6.10 9.86C0.27 9.86 0.27 1.09 6.10 1.09C7.10 1.09 8.01 1.41 8.74 1.93C9.51 2.49 10.07 3.26 10.36 4.16C10.43 4.41 10.71 4.55 10.96 4.47C11.21 4.40 11.34 4.13 11.27 3.88ZM3.22 7.17L3.22 7.17C3.51 7.69 3.93 8.12 4.44 8.43C4.94 8.71 5.52 8.88 6.10 8.88C7.04 8.88 7.88 8.50 8.50 7.87C9.09 7.25 9.46 6.41 9.46 5.47C9.46 4.54 9.09 3.70 8.50 3.08C7.88 2.46 7.04 2.09 6.10 2.09C5.52 2.09 4.94 2.24 4.44 2.53C3.93 2.83 3.51 3.26 3.22 3.78C3.08 4.02 3.16 4.31 3.39 4.44C3.63 4.56 3.91 4.48 4.03 4.24C4.26 3.88 4.56 3.57 4.93 3.36C5.28 3.15 5.67 3.04 6.10 3.04C6.78 3.04 7.38 3.32 7.80 3.75C8.25 4.19 8.51 4.80 8.51 5.47C8.51 6.16 8.25 6.78 7.80 7.21C7.38 7.66 6.78 7.92 6.10 7.92C5.67 7.92 5.26 7.80 4.93 7.59C4.56 7.39 4.26 7.07 4.03 6.71C3.91 6.47 3.63 6.40 3.39 6.52C3.16 6.66 3.08 6.93 3.22 7.17ZM13.75 7.76C12.89 7.76 12.26 8.40 12.26 9.24C12.26 10.07 12.89 10.71 13.75 10.71C14.60 10.71 15.22 10.05 15.22 9.24C15.22 8.40 14.60 7.76 13.75 7.76ZM13.75 8.58C14.15 8.58 14.41 8.85 14.41 9.24C14.41 9.62 14.15 9.88 13.75 9.88C13.36 9.88 13.08 9.63 13.08 9.24C13.08 8.85 13.36 8.58 13.75 8.58ZM26.78 3.88L26.78 3.88C26.43 2.77 25.73 1.83 24.82 1.16C23.91 0.52 22.82 0.14 21.62 0.14C14.52 0.14 14.52 10.82 21.62 10.82C22.82 10.82 23.91 10.43 24.82 9.79C25.73 9.13 26.43 8.18 26.78 7.08C26.85 6.83 26.73 6.55 26.47 6.48C26.22 6.41 25.94 6.54 25.87 6.79C25.58 7.70 25.02 8.47 24.25 9.02C23.52 9.55 22.61 9.86 21.62 9.86C15.78 9.86 15.78 1.09 21.62 1.09C22.61 1.09 23.52 1.41 24.25 1.93C25.02 2.49 25.58 3.26 25.87 4.16C25.94 4.41 26.22 4.55 26.47 4.47C26.73 4.40 26.85 4.13 26.78 3.88ZM18.73 7.17L18.73 7.17C19.03 7.69 19.45 8.12 19.95 8.43C20.45 8.71 21.03 8.88 21.62 8.88C22.55 8.88 23.39 8.50 24.01 7.87C24.60 7.25 24.98 6.41 24.98 5.47C24.98 4.54 24.60 3.70 24.01 3.08C23.39 2.46 22.55 2.09 21.62 2.09C21.03 2.09 20.45 2.24 19.95 2.53C19.45 2.83 19.03 3.26 18.73 3.78C18.59 4.02 18.68 4.31 18.90 4.44C19.14 4.56 19.42 4.48 19.54 4.24C19.77 3.88 20.08 3.57 20.44 3.36C20.79 3.15 21.18 3.04 21.62 3.04C22.29 3.04 22.89 3.32 23.31 3.75C23.76 4.19 24.02 4.80 24.02 5.47C24.02 6.16 23.76 6.78 23.31 7.21C22.89 7.66 22.29 7.92 21.62 7.92C21.18 7.92 20.78 7.80 20.44 7.59C20.08 7.39 19.77 7.07 19.54 6.71C19.42 6.47 19.14 6.40 18.90 6.52C18.68 6.66 18.59 6.93 18.73 7.17ZM36.65 5.03L36.65 5.03C38.53 5.03 38.53 2.23 36.65 2.23L35 2.23C34.38 2.23 34.38 3.16 35 3.16L36.65 3.16C37.30 3.16 37.30 4.10 36.65 4.10C36.29 4.10 35.66 3.99 35.66 4.56C35.66 5.12 36.29 5.03 36.65 5.03ZM33.60 10.16L33.60 10.16L33.60 1.29L36.82 1.29C39.83 1.29 39.83 5.96 36.82 5.96L35 5.96C34.75 5.96 34.52 6.17 34.52 6.43L34.52 10.16C34.52 10.78 35.48 10.78 35.48 10.16L35.48 6.90L36.82 6.90C41.05 6.90 41.06 0.36 36.82 0.36L33.12 0.36C32.87 0.36 32.66 0.56 32.66 0.84L32.66 10.16C32.66 10.78 33.60 10.78 33.60 10.16ZM43.46 0.81L43.46 0.81L43.46 4.56C43.46 4.82 43.67 5.03 43.92 5.03L46.73 5.03C46.98 5.03 47.19 4.82 47.19 4.56L47.19 0.81C47.19 0.56 46.98 0.35 46.73 0.35C46.47 0.35 46.26 0.56 46.26 0.81L46.26 4.09L44.39 4.09L44.39 0.81C44.39 0.56 44.18 0.35 43.92 0.35C43.67 0.35 43.46 0.56 43.46 0.81ZM47.19 10.18L47.19 10.18L47.19 6.43C47.19 6.17 46.98 5.96 46.73 5.96L43.92 5.96C43.67 5.96 43.46 6.17 43.46 6.43L43.46 10.18C43.46 10.43 43.67 10.64 43.92 10.64C44.18 10.64 44.39 10.43 44.39 10.18L44.39 6.90L46.26 6.90L46.26 10.18C46.26 10.43 46.47 10.64 46.73 10.64C46.98 10.64 47.19 10.43 47.19 10.18ZM42.52 10.18L42.52 10.18L42.52 0.81C42.52 0.56 42.31 0.35 42.06 0.35C41.79 0.35 41.58 0.56 41.58 0.81L41.58 10.18C41.58 10.43 41.79 10.64 42.06 10.64C42.31 10.64 42.52 10.43 42.52 10.18ZM48.13 0.81L48.13 0.81L48.13 10.18C48.13 10.43 48.34 10.64 48.59 10.64C48.86 10.64 49.07 10.43 49.07 10.18L49.07 0.81C49.07 0.56 48.86 0.35 48.59 0.35C48.34 0.35 48.13 0.56 48.13 0.81ZM61.47 3.88L61.47 3.88C61.12 2.77 60.42 1.83 59.51 1.16C58.60 0.52 57.51 0.14 56.31 0.14C49.21 0.14 49.21 10.82 56.31 10.82C57.51 10.82 58.60 10.43 59.51 9.79C60.42 9.13 61.12 8.18 61.47 7.08C61.54 6.83 61.42 6.55 61.17 6.48C60.91 6.41 60.63 6.54 60.56 6.79C60.27 7.70 59.71 8.47 58.94 9.02C58.21 9.55 57.30 9.86 56.31 9.86C50.47 9.86 50.47 1.09 56.31 1.09C57.30 1.09 58.21 1.41 58.94 1.93C59.71 2.49 60.27 3.26 60.56 4.16C60.63 4.41 60.91 4.55 61.17 4.47C61.42 4.40 61.54 4.13 61.47 3.88ZM53.42 7.17L53.42 7.17C53.72 7.69 54.14 8.12 54.64 8.43C55.15 8.71 55.72 8.88 56.31 8.88C57.25 8.88 58.09 8.50 58.70 7.87C59.29 7.25 59.67 6.41 59.67 5.47C59.67 4.54 59.29 3.70 58.70 3.08C58.09 2.46 57.25 2.09 56.31 2.09C55.72 2.09 55.15 2.24 54.64 2.53C54.14 2.83 53.72 3.26 53.42 3.78C53.28 4.02 53.37 4.31 53.59 4.44C53.83 4.56 54.11 4.48 54.24 4.24C54.46 3.88 54.77 3.57 55.13 3.36C55.48 3.15 55.87 3.04 56.31 3.04C56.98 3.04 57.58 3.32 58.00 3.75C58.45 4.19 58.72 4.80 58.72 5.47C58.72 6.16 58.45 6.78 58.00 7.21C57.58 7.66 56.98 7.92 56.31 7.92C55.87 7.92 55.47 7.80 55.13 7.59C54.77 7.39 54.46 7.07 54.24 6.71C54.11 6.47 53.83 6.40 53.59 6.52C53.37 6.66 53.28 6.93 53.42 7.17ZM69.55 2.23L69.55 2.23L67.20 2.23C66.95 2.23 66.74 2.44 66.74 2.70L66.74 10.16C66.74 10.43 66.95 10.64 67.20 10.64C67.47 10.64 67.68 10.43 67.68 10.16L67.68 3.15L69.55 3.15C69.80 3.15 70 2.95 70 2.70C70 2.44 69.80 2.23 69.55 2.23ZM63.01 1.29L63.01 1.29L69.55 1.29C69.80 1.29 70 1.08 70 0.83C70 0.56 69.80 0.36 69.55 0.36L63.01 0.36C62.75 0.36 62.54 0.56 62.54 0.83C62.54 1.08 62.75 1.29 63.01 1.29ZM63.01 3.15L63.01 3.15L64.86 3.15L64.86 10.16C64.86 10.43 65.09 10.64 65.34 10.64C65.60 10.64 65.81 10.43 65.81 10.16L65.81 2.70C65.81 2.44 65.60 2.23 65.34 2.23L63.01 2.23C62.75 2.23 62.54 2.44 62.54 2.70C62.54 2.95 62.75 3.15 63.01 3.15ZM81.34 3.88L81.34 3.88C80.99 2.77 80.29 1.83 79.38 1.16C78.47 0.52 77.38 0.14 76.17 0.14C69.08 0.14 69.08 10.82 76.17 10.82C77.38 10.82 78.47 10.43 79.38 9.79C80.29 9.13 80.99 8.18 81.34 7.08C81.41 6.83 81.28 6.55 81.03 6.48C80.78 6.41 80.50 6.54 80.43 6.79C80.14 7.70 79.58 8.47 78.81 9.02C78.08 9.55 77.17 9.86 76.17 9.86C70.34 9.86 70.34 1.09 76.17 1.09C77.17 1.09 78.08 1.41 78.81 1.93C79.58 2.49 80.14 3.26 80.43 4.16C80.50 4.41 80.78 4.55 81.03 4.47C81.28 4.40 81.41 4.13 81.34 3.88ZM73.29 7.17L73.29 7.17C73.58 7.69 74.00 8.12 74.51 8.43C75.01 8.71 75.59 8.88 76.17 8.88C77.11 8.88 77.95 8.50 78.57 7.87C79.16 7.25 79.53 6.41 79.53 5.47C79.53 4.54 79.16 3.70 78.57 3.08C77.95 2.46 77.11 2.09 76.17 2.09C75.59 2.09 75.01 2.24 74.51 2.53C74.00 2.83 73.58 3.26 73.29 3.78C73.15 4.02 73.23 4.31 73.46 4.44C73.70 4.56 73.98 4.48 74.10 4.24C74.33 3.88 74.63 3.57 75.00 3.36C75.35 3.15 75.74 3.04 76.17 3.04C76.85 3.04 77.45 3.32 77.87 3.75C78.32 4.19 78.58 4.80 78.58 5.47C78.58 6.16 78.32 6.78 77.87 7.21C77.45 7.66 76.85 7.92 76.17 7.92C75.74 7.92 75.33 7.80 75.00 7.59C74.63 7.39 74.33 7.07 74.10 6.71C73.98 6.47 73.70 6.40 73.46 6.52C73.23 6.66 73.15 6.93 73.29 7.17ZM88.49 0.71L88.49 0.71C87.51 0.38 86.83 0.27 85.99 0.31C83.10 0.45 81.87 3.99 83.90 5.77C85.20 6.90 86.59 6.79 86.65 7.45C86.73 8.15 84.84 8.01 83.76 7.22C83.27 6.87 82.73 7.63 83.22 7.98C84.14 8.65 85.27 8.88 86.18 8.82C86.94 8.76 87.63 8.19 87.58 7.41C87.49 5.92 85.75 6.16 84.53 5.07C83.52 4.20 83.72 2.73 84.48 1.93C85.40 0.91 86.91 1.15 88.17 1.60C88.76 1.81 89.07 0.91 88.49 0.71ZM83.03 9.97L83.03 9.97C83.58 10.26 84.13 10.44 84.60 10.54C87.22 11.17 89.49 9.97 89.49 7.41C89.49 4.80 86.42 4.24 85.90 3.85C85.44 3.49 85.81 2.62 87.92 3.47C88.49 3.71 88.83 2.84 88.28 2.62C84.80 1.20 84.21 3.68 85.33 4.56C86.04 5.14 88.56 5.49 88.56 7.41C88.56 10.00 85.64 10.29 83.48 9.14C82.94 8.86 82.50 9.69 83.03 9.97ZM86.10 7.90L86.10 7.90L86.10 7.90L86.10 7.90Z"></path></g><!----><g data-v-d3f97b9e="" id="aa52a7fa-e28c-46d4-8da9-e7c2ef6cfbd5" transform="matrix(1.00441940177321,0,0,1.00441940177321,199.15719376717078,-5.0233697801900945)" stroke="none" fill="white"><path d="M72.958 5.288H28.324c-12.297 0-22.302 10.005-22.302 22.302v45c0 12.296 10.005 22.302 22.302 22.302h44.634c12.297 0 22.302-10.006 22.302-22.302v-45c0-12.297-10.005-22.302-22.302-22.302zm-44.634 8.26h44.634C80.701 13.548 87 19.847 87 27.59v7.676H63.356a21.06 21.06 0 0 0-12.259-3.924 21.063 21.063 0 0 0-12.26 3.924H14.281V27.59c0-7.743 6.3-14.042 14.043-14.042zm31.567 38.977c0 4.85-3.944 8.795-8.793 8.795-4.85 0-8.794-3.945-8.794-8.795 0-4.848 3.945-8.793 8.794-8.793 4.848 0 8.793 3.946 8.793 8.793zm13.067 34.108H28.324c-7.743 0-14.042-6.301-14.042-14.042V43.526h17.645a21.06 21.06 0 0 0-2.013 8.999c0 11.683 9.503 21.185 21.185 21.185 11.681 0 21.184-9.502 21.184-21.185a21.06 21.06 0 0 0-2.013-8.999H87V72.59c0 7.742-6.299 14.043-14.042 14.043z"></path><path d="M80.527 28.693a2.485 2.485 0 0 1-2.478 2.478h-7.657a2.485 2.485 0 0 1-2.478-2.478v-7.657a2.485 2.485 0 0 1 2.478-2.478h7.657a2.486 2.486 0 0 1 2.478 2.478v7.657z"></path></g><!----><g data-v-d3f97b9e="" id="8c4288c4-4094-4b42-9387-91617ea05b8c" fill="white" transform="matrix(1.723622569567508,0,0,1.723622569567508,62.508374651974094,195.03992258607516)"><path d="M9.51 3.86L10.36 12.60L10.78 12.60L9.73 2.45L5.81 10.70L1.89 2.45L0.84 12.60L1.26 12.60L2.11 3.86L5.81 11.69ZM23.10 2.45L18.83 12.60L19.32 12.60L20.59 9.52L25.61 9.52L26.88 12.60L27.37 12.60ZM23.10 3.50L25.41 9.07L20.79 9.07ZM35.77 2.80L35.77 12.60L36.19 12.60L36.19 7.56L40.63 12.60L41.22 12.60L36.62 7.39L41.01 2.80L40.43 2.80L36.19 7.24L36.19 2.80ZM49.62 2.80L49.62 12.60L50.04 12.60L50.04 2.80ZM66.42 2.80L66.42 11.79L58.93 2.45L58.93 12.60L59.35 12.60L59.35 3.61L66.84 12.95L66.84 2.80ZM84.48 7.63L80.42 7.63L80.42 8.11L84 8.11C83.92 9.32 83.52 10.32 82.81 11.09C82.10 11.87 81.16 12.26 80.00 12.26C78.71 12.26 77.67 11.82 76.87 10.94C76.08 10.06 75.68 8.98 75.68 7.70C75.68 6.40 76.09 5.32 76.89 4.45C77.70 3.57 78.74 3.14 80.00 3.14C80.74 3.14 81.44 3.31 82.08 3.65C82.71 4.00 83.23 4.47 83.61 5.05L84 4.75C83.56 4.11 83.00 3.61 82.32 3.24C81.64 2.87 80.86 2.69 80.00 2.69C78.64 2.69 77.51 3.17 76.60 4.13C75.69 5.09 75.24 6.28 75.24 7.70C75.24 9.12 75.69 10.31 76.60 11.27C77.51 12.23 78.64 12.71 80.00 12.71C81.37 12.71 82.46 12.22 83.27 11.23C84.07 10.25 84.48 9.05 84.48 7.63ZM112.95 3.86L113.81 12.60L114.23 12.60L113.18 2.45L109.26 10.70L105.34 2.45L104.29 12.60L104.71 12.60L105.56 3.86L109.26 11.69ZM123.75 7.48L128.09 7.48L128.09 7.08L123.75 7.08L123.75 3.21L128.37 3.21L128.37 2.80L123.33 2.80L123.33 12.60L128.37 12.60L128.37 12.19L123.75 12.19ZM145.99 3.86L146.85 12.60L147.27 12.60L146.22 2.45L142.30 10.70L138.38 2.45L137.33 12.60L137.75 12.60L138.60 3.86L142.30 11.69ZM156.23 7.70C156.23 6.38 156.63 5.29 157.44 4.41C158.26 3.53 159.28 3.09 160.52 3.09C161.77 3.09 162.79 3.53 163.60 4.41C164.42 5.29 164.82 6.38 164.82 7.70C164.82 9.02 164.42 10.11 163.60 10.99C162.79 11.87 161.77 12.31 160.52 12.31C159.28 12.31 158.26 11.87 157.44 10.99C156.63 10.11 156.23 9.02 156.23 7.70ZM155.81 7.70C155.81 9.16 156.25 10.36 157.14 11.30C158.03 12.24 159.16 12.71 160.52 12.71C161.89 12.71 163.01 12.24 163.91 11.30C164.80 10.36 165.24 9.16 165.24 7.70C165.24 6.24 164.80 5.04 163.91 4.10C163.01 3.16 161.89 2.69 160.52 2.69C159.16 2.69 158.03 3.16 157.14 4.10C156.25 5.04 155.81 6.24 155.81 7.70ZM174.62 2.80ZM174.20 2.80L174.20 12.60L174.62 12.60L174.62 8.48L176.18 8.48L179.30 12.60L179.84 12.60L176.65 8.47C177.55 8.41 178.26 8.15 178.80 7.67C179.34 7.20 179.61 6.52 179.61 5.64C179.61 4.71 179.30 4.00 178.70 3.52C178.09 3.04 177.29 2.80 176.30 2.80ZM174.62 3.21L176.30 3.21C177.17 3.21 177.87 3.41 178.39 3.83C178.91 4.24 179.17 4.85 179.17 5.64C179.17 6.44 178.91 7.04 178.39 7.45C177.87 7.87 177.17 8.08 176.30 8.08L174.62 8.08ZM188.17 2.80L188.17 12.60L188.59 12.60L188.59 2.80ZM198.46 7.48L202.80 7.48L202.80 7.08L198.46 7.08L198.46 3.21L203.08 3.21L203.08 2.80L198.04 2.80L198.04 12.60L203.08 12.60L203.08 12.19L198.46 12.19ZM212.14 9.74L211.76 9.90C212.39 11.77 213.44 12.71 214.91 12.71C215.83 12.71 216.52 12.45 216.99 11.93C217.45 11.41 217.69 10.77 217.69 10.01C217.69 9.66 217.63 9.35 217.51 9.06C217.39 8.78 217.26 8.55 217.12 8.37C216.97 8.19 216.77 8.02 216.51 7.86C216.25 7.70 216.04 7.58 215.87 7.50C215.71 7.43 215.49 7.34 215.21 7.22C215.17 7.21 215.05 7.16 214.86 7.08C214.66 7.01 214.54 6.96 214.49 6.94C214.45 6.91 214.34 6.87 214.17 6.80C214.00 6.73 213.89 6.67 213.84 6.64C213.79 6.60 213.70 6.54 213.57 6.45C213.44 6.37 213.35 6.30 213.30 6.24C213.26 6.18 213.19 6.10 213.11 6.00C213.02 5.90 212.97 5.80 212.93 5.70C212.90 5.61 212.87 5.50 212.84 5.38C212.81 5.25 212.80 5.12 212.80 4.98C212.80 4.41 213.00 3.95 213.40 3.62C213.79 3.29 214.28 3.12 214.87 3.12C216.00 3.12 216.79 3.77 217.22 5.07L217.63 4.90C217.42 4.23 217.09 3.69 216.62 3.29C216.16 2.89 215.58 2.69 214.89 2.69C214.20 2.69 213.60 2.90 213.09 3.33C212.58 3.76 212.32 4.33 212.32 5.04C212.32 5.39 212.40 5.71 212.54 5.99C212.69 6.27 212.90 6.51 213.19 6.71C213.47 6.91 213.73 7.07 213.96 7.17C214.18 7.28 214.48 7.41 214.84 7.55C215.12 7.65 215.32 7.72 215.42 7.77C215.52 7.82 215.69 7.90 215.94 8.02C216.18 8.13 216.35 8.24 216.46 8.34C216.57 8.45 216.69 8.58 216.84 8.75C216.98 8.92 217.08 9.11 217.14 9.32C217.20 9.54 217.22 9.78 217.22 10.05C217.22 10.72 217.04 11.27 216.66 11.68C216.28 12.09 215.71 12.29 214.96 12.29C213.72 12.29 212.79 11.44 212.14 9.74Z"></path></g></svg>