<svg data-v-29081953="" xmlns="http://www.w3.org/2000/svg" viewBox="0 0 300 300"><!----><defs data-v-29081953=""><!----></defs><rect data-v-29081953="" fill="#EADEE5" x="0" y="0" width="300px" height="300px" class="logo-background-square"></rect><!----><defs data-v-29081953=""><linearGradient data-v-29081953="" gradientTransform="rotate(25)" id="5e7bbaa4-e312-4086-aef7-277dad3943ef" x1="0%" y1="0%" x2="100%" y2="0%"><stop data-v-29081953="" offset="0%" stop-color="#3C1143" stop-opacity="1"></stop><stop data-v-29081953="" offset="100%" stop-color="#C25178" stop-opacity="1"></stop></linearGradient></defs><g data-v-29081953="" id="9a05d184-471d-4039-bdb7-1b634cf0626f" fill="url(#5e7bbaa4-e312-4086-aef7-277dad3943ef)" stroke="none" transform="matrix(2.4552474265567357,0,0,2.4552474265567357,25.663808552986502,27.01666071214491)"><path d="M72.958 5.288H28.324c-12.297 0-22.302 10.005-22.302 22.302v45c0 12.296 10.005 22.302 22.302 22.302h44.634c12.297 0 22.302-10.006 22.302-22.302v-45c0-12.297-10.005-22.302-22.302-22.302zm-44.634 8.26h44.634C80.701 13.548 87 19.847 87 27.59v7.676H63.356a21.06 21.06 0 0 0-12.259-3.924 21.063 21.063 0 0 0-12.26 3.924H14.281V27.59c0-7.743 6.3-14.042 14.043-14.042zm31.567 38.977c0 4.85-3.944 8.795-8.793 8.795-4.85 0-8.794-3.945-8.794-8.795 0-4.848 3.945-8.793 8.794-8.793 4.848 0 8.793 3.946 8.793 8.793zm13.067 34.108H28.324c-7.743 0-14.042-6.301-14.042-14.042V43.526h17.645a21.06 21.06 0 0 0-2.013 8.999c0 11.683 9.503 21.185 21.185 21.185 11.681 0 21.184-9.502 21.184-21.185a21.06 21.06 0 0 0-2.013-8.999H87V72.59c0 7.742-6.299 14.043-14.042 14.043z"></path><path d="M80.527 28.693a2.485 2.485 0 0 1-2.478 2.478h-7.657a2.485 2.485 0 0 1-2.478-2.478v-7.657a2.485 2.485 0 0 1 2.478-2.478h7.657a2.486 2.486 0 0 1 2.478 2.478v7.657z"></path></g><!----></svg>