<svg data-v-d3f97b9e="" xmlns="http://www.w3.org/2000/svg" viewBox="0 0 59.75492346424426 60"><!----><!----><!----><!----><g data-v-d3f97b9e="" id="69bebcf4-0b96-4ae1-8217-babad3fdf738" transform="matrix(0.6696129345154733,0,0,0.6696129345154733,-4.032408007555084,-3.540910714869568)" stroke="none" fill="white"><path d="M72.958 5.288H28.324c-12.297 0-22.302 10.005-22.302 22.302v45c0 12.296 10.005 22.302 22.302 22.302h44.634c12.297 0 22.302-10.006 22.302-22.302v-45c0-12.297-10.005-22.302-22.302-22.302zm-44.634 8.26h44.634C80.701 13.548 87 19.847 87 27.59v7.676H63.356a21.06 21.06 0 0 0-12.259-3.924 21.063 21.063 0 0 0-12.26 3.924H14.281V27.59c0-7.743 6.3-14.042 14.043-14.042zm31.567 38.977c0 4.85-3.944 8.795-8.793 8.795-4.85 0-8.794-3.945-8.794-8.795 0-4.848 3.945-8.793 8.794-8.793 4.848 0 8.793 3.946 8.793 8.793zm13.067 34.108H28.324c-7.743 0-14.042-6.301-14.042-14.042V43.526h17.645a21.06 21.06 0 0 0-2.013 8.999c0 11.683 9.503 21.185 21.185 21.185 11.681 0 21.184-9.502 21.184-21.185a21.06 21.06 0 0 0-2.013-8.999H87V72.59c0 7.742-6.299 14.043-14.042 14.043z"></path><path d="M80.527 28.693a2.485 2.485 0 0 1-2.478 2.478h-7.657a2.485 2.485 0 0 1-2.478-2.478v-7.657a2.485 2.485 0 0 1 2.478-2.478h7.657a2.486 2.486 0 0 1 2.478 2.478v7.657z"></path></g><!----></svg>